HIERARCHY
ROOT Hips
{
  OFFSET 263.056 91.6644 -274.608
  CHANNELS 6 Xposition Yposition Zposition Zrotation Xrotation Yrotation
  JOINT LeftUpLeg
  {
    OFFSET 8.64259 1.95398 -2.38835
    CHANNELS 3 Zrotation Xrotation Yrotation
    JOINT LeftLeg
    {
      OFFSET 43.7702 0 0
      CHANNELS 3 Zrotation Xrotation Yrotation
      JOINT LeftFoot
      {
        OFFSET 40.6238 0 0
        CHANNELS 3 Zrotation Xrotation Yrotation
        JOINT LeftToeBase
        {
          OFFSET 12.7242 0 0
          CHANNELS 3 Zrotation Xrotation Yrotation
          End Site
          {
            OFFSET 0 0 0
          }
        }
      }
    }
  }
  JOINT RightUpLeg
  {
    OFFSET -8.2249 1.95398 -2.59336
    CHANNELS 3 Zrotation Xrotation Yrotation
    JOINT RightLeg
    {
      OFFSET 43.5653 0 0
      CHANNELS 3 Zrotation Xrotation Yrotation
      JOINT RightFoot
      {
        OFFSET 40.6238 0 0
        CHANNELS 3 Zrotation Xrotation Yrotation
        JOINT RightToeBase
        {
          OFFSET 12.7242 0 0
          CHANNELS 3 Zrotation Xrotation Yrotation
          End Site
          {
            OFFSET 0 0 0
          }
        }
      }
    }
  }
  JOINT Spine
  {
    OFFSET 0.165834 0.87714 6.61349
    CHANNELS 3 Zrotation Xrotation Yrotation
    JOINT Spine1
    {
      OFFSET 7.38963 1.71661e-005 0
      CHANNELS 3 Zrotation Xrotation Yrotation
      JOINT Spine2
      {
        OFFSET 11.9445 1.14441e-005 0
        CHANNELS 3 Zrotation Xrotation Yrotation
        JOINT Spine3
        {
          OFFSET 14.7254 4.19617e-005 0
          CHANNELS 3 Zrotation Xrotation Yrotation
          JOINT Spine4
          {
            OFFSET 10.9679 0 0
            CHANNELS 3 Zrotation Xrotation Yrotation
            JOINT RightShoulder
            {
              OFFSET 2.46616 -1.6653 3.69651
              CHANNELS 3 Zrotation Xrotation Yrotation
              JOINT RightArm
              {
                OFFSET 13.0012 0 0
                CHANNELS 3 Zrotation Xrotation Yrotation
                JOINT RightForeArm
                {
                  OFFSET 28.7848 1.52588e-005 0
                  CHANNELS 3 Zrotation Xrotation Yrotation
                  JOINT RightHand
                  {
                    OFFSET 26.5688 1.52588e-005 0
                    CHANNELS 3 Zrotation Xrotation Yrotation
                    End Site
                    {
                      OFFSET 0 0 0
                    }
                  }
                }
              }
            }
            JOINT LeftShoulder
            {
              OFFSET 2.38034 -1.29275 -3.7523
              CHANNELS 3 Zrotation Xrotation Yrotation
              JOINT LeftArm
              {
                OFFSET 16.3182 6.10352e-005 0
                CHANNELS 3 Zrotation Xrotation Yrotation
                JOINT LeftForeArm
                {
                  OFFSET 27.0901 0 0
                  CHANNELS 3 Zrotation Xrotation Yrotation
                  JOINT LeftHand
                  {
                    OFFSET 24.5451 1.52588e-005 0
                    CHANNELS 3 Zrotation Xrotation Yrotation
                    End Site
                    {
                      OFFSET 0 0 0
                    }
                  }
                }
              }
            }
            JOINT Neck
            {
              OFFSET 5.0226 -0.0266342 0
              CHANNELS 3 Zrotation Xrotation Yrotation
              JOINT Head
              {
                OFFSET 6.69364 2.86102e-005 0
                CHANNELS 3 Zrotation Xrotation Yrotation
                End Site
                {
                  OFFSET 0 0 0
                }
              }
            }
          }
        }
      }
    }
  }
}
MOTION
Frames:	7
Frame Time:	0.0416667
-54.6065 97.2665 44.5443 -131.734 -87.2936 -131.33 -172.196 3.72047 91.9763 -9.40405 11.6697 0.11001 60.7113 3.00375 6.9552 32.2918 4.45029 -13.2456 177.326 3.36201 89.029 -10.8469 2.42943 -1.07401 63.2449 -1.1987 -0.624883 29.408 -0.604913 11.1604 -0.135665 7.18732 -90.0249 12.4993 -0.281365 -0.0173061 0.828329 -0.281851 -0.00491047 -21.707 -0.263152 -0.101068 -1.69439 -0.263153 -0.101067 81.3083 -50.8131 -113.647 26.5824 -7.02488 8.93904 -4.5223 -11.8491 -38.9671 -6.16959 -0.580996 4.93673 -103.297 -43.5125 56.4256 -29.6629 8.75827 7.81471 3.88493 8.24187 -31.7867 9.53088 0.722701 3.41892 13.6664 2.06397 2.3721 -9.6442 1.62455 -4.05501 
-54.601 97.2539 44.285 -124.262 -87.2847 -123.959 -172.103 4.10506 91.9586 -9.12964 10.891 -0.124877 59.7696 2.09115 6.81792 34.5133 6.41147 -16.0269 177.118 3.96001 88.8097 -11.0322 2.14513 -0.832689 63.3453 -1.25536 -0.662323 29.9778 -0.463542 10.1372 -0.132388 7.2665 -89.9857 12.341 -0.256231 0.0574908 0.670054 -0.253442 0.0687089 -21.8653 -0.261665 -0.0221694 -1.85265 -0.261664 -0.0221761 80.9697 -50.9196 -114.106 26.6902 -6.58365 9.86331 -4.08376 -11.4759 -37.7729 -6.69734 -0.584177 4.16422 -103.058 -43.0616 56.5764 -30.3738 8.73779 9.21429 4.02086 8.31337 -32.4502 11.3787 0.840719 3.34198 9.81935 0.995128 2.46013 -0.586692 0.388342 -0.60366 
-54.552 97.2675 44.0545 -113.205 -87.4086 -112.998 -172.215 4.75486 91.7877 -9.14354 11.2349 -0.227425 59.8236 2.31478 7.44869 33.4049 5.44486 -13.5249 177.236 4.60051 88.7465 -11.0092 1.66772 -0.923168 63.1713 -1.17558 -0.613774 33.0509 0.0520612 8.38039 -0.148478 7.33803 -90.0031 12.1979 -0.296499 0.0270088 0.526968 -0.295017 0.0400227 -22.0084 -0.290917 -0.063356 -1.9958 -0.290908 -0.0633525 81.0158 -50.7815 -114.09 26.5364 -6.69192 11.197 -3.50754 -11.1871 -37.3749 -6.7877 -0.580324 4.03276 -102.776 -43.0077 56.9813 -31.4686 8.16764 10.9725 4.07557 7.47944 -33.0086 10.9615 0.754366 2.84816 10.5316 1.28854 2.51861 1.69824 0.651906 -0.537853 
-54.4934 97.2346 43.9308 -93.0271 -87.1486 -92.7862 -172.387 5.69174 91.6532 -9.23036 10.5499 -0.150195 60.0493 2.29372 7.29344 34.381 6.29171 -11.484 177.606 5.39039 88.9069 -10.5604 1.26757 -1.14691 62.9574 -1.17235 -0.614874 36.2179 0.475945 7.7722 -0.0964784 7.39218 -89.9992 12.0895 -0.191385 0.0226359 0.418597 -0.190207 0.0310256 -22.1167 -0.189349 -0.0359313 -2.10402 -0.189344 -0.0359404 80.563 -51.2211 -114.588 26.2759 -6.36333 12.6453 -3.12557 -10.7862 -36.9916 -6.59192 -0.569897 4.15967 -102.764 -42.7627 56.8864 -32.4734 7.92036 12.8462 4.55205 8.05471 -33.4558 10.7506 0.7781 3.17465 11.1934 1.19009 2.0697 6.15351 0.682398 0.0863673 
-54.3793 97.2102 43.9322 -71.938 -87.1331 -71.6695 -172.378 6.74544 91.6118 -9.2062 10.6824 -0.362336 60.238 2.30647 7.26066 37.752 9.42531 -10.024 177.776 6.08151 88.9383 -9.8316 1.71144 -1.15009 62.8843 -1.21099 -0.638741 37.4781 0.642729 7.93692 -0.107454 7.43517 -90.0174 12.0035 -0.221778 -0.010481 0.332619 -0.222025 -0.000713078 -22.2027 -0.208375 -0.0766426 -2.19003 -0.208374 -0.0766468 80.0686 -51.4642 -115.216 26.2359 -5.86249 13.6544 -3.48508 -11.027 -36.4029 -7.21662 -0.634815 4.50394 -102.839 -42.7949 56.7862 -33.3165 7.80882 14.0722 4.41211 7.86057 -33.1506 9.97457 0.612368 2.12156 12.0276 1.23702 2.49748 12.4788 0.513602 -0.555064 
-54.3179 97.1606 43.9481 -55.4008 -86.6474 -55.1319 -172.387 7.46603 91.5988 -8.67592 10.4244 -0.488432 60.1216 2.07934 6.67693 40.0279 11.6854 -8.37109 177.888 7.02702 88.9437 -9.74095 2.07522 -1.08738 63.3043 -1.30438 -0.693386 39.5288 0.928164 8.4452 -0.0654045 7.46271 -90.0198 11.9484 -0.139325 -0.0244366 0.277508 -0.140265 -0.0182931 -22.2577 -0.125543 -0.0651736 -2.24505 -0.125547 -0.065188 79.8654 -51.7043 -115.418 26.1763 -6.05093 14.3216 -2.05804 -9.92522 -34.8435 -7.07044 -0.588859 3.96844 -102.874 -42.5962 56.6395 -33.8948 8.03508 14.5842 4.10088 7.82684 -32.8422 11.0089 0.70546 2.3964 14.2177 1.0329 2.70856 16.1414 0.15625 -0.75808 
-54.2385 97.1598 44.1146 -47.8912 -86.222 -47.5694 -172.396 7.99215 91.5669 -8.7733 10.4184 -0.57057 60.8622 2.62371 6.43698 39.1551 11.0094 -6.34844 177.954 7.40603 88.9685 -9.46658 2.221 -1.06101 63.361 -1.3274 -0.706043 40.458 1.05276 8.45048 -0.0324505 7.46934 -90.0163 11.9352 -0.0721417 -0.0247561 0.264253 -0.0731565 -0.0215661 -22.2709 -0.0613657 -0.0452937 -2.25826 -0.0613721 -0.0453014 78.8224 -52.1476 -116.751 25.8078 -6.19052 14.9457 -1.44616 -9.72324 -34.1822 -7.12855 -0.58945 3.93425 -103.119 -42.6635 56.2959 -34.1015 8.167 14.4108 2.77011 5.98463 -31.5059 11.8352 0.857377 3.23055 15.6261 0.913805 2.26572 17.7721 0.157758 -0.533546 
